HIERARCHY
ROOT root
{
	OFFSET	0	13.1	24.9
	CHANNELS 6  Xposition Yposition Zposition Xrotation Yrotation Zrotation
	JOINT spine_1
	{
		OFFSET	0	9.99999	0
		CHANNELS 3  Xrotation Yrotation Zrotation
		JOINT spine_2
		{
			OFFSET	0	112	-10
			CHANNELS 3  Xrotation Yrotation Zrotation
			JOINT spine_3
			{
				OFFSET	0	206.5	19.3
				CHANNELS 3  Xrotation Yrotation Zrotation
				JOINT spine_4
				{
					OFFSET	0	110.4	14.6
					CHANNELS 3  Xrotation Yrotation Zrotation
					JOINT neck_1
					{
						OFFSET	0	71.8	-50.3
						CHANNELS 3  Xrotation Yrotation Zrotation
						JOINT neck_2
						{
							OFFSET	0	86.2	-25.8
							CHANNELS 3  Xrotation Yrotation Zrotation
							JOINT head_ee
							{
								OFFSET	0	179.8	-8.7
								CHANNELS 3  Xrotation Yrotation Zrotation
								End Site
								{
									OFFSET	1	0	0
								}
							}
						}
					}
					JOINT left_clavicle
					{
						OFFSET	-43.2	22.4	-70.8
						CHANNELS 3  Xrotation Yrotation Zrotation
						JOINT left_shoulder
						{
							OFFSET	-93.9	-5.79999	48.7
							CHANNELS 3  Xrotation Yrotation Zrotation
							JOINT left_elbow
							{
								OFFSET	-291.4	-30.8	15.2
								CHANNELS 3  Xrotation Yrotation Zrotation
								JOINT left_lowarm_twist
								{
									OFFSET	-110.7	-3.89999	13.6
									CHANNELS 3  Xrotation Yrotation Zrotation
									JOINT left_hand
									{
										OFFSET	-110.7	-3.89999	13.6
										CHANNELS 3  Xrotation Yrotation Zrotation
										JOINT left_ee
										{
											OFFSET	-80.8	-5.10001	12.1
											CHANNELS 3  Xrotation Yrotation Zrotation
											End Site
											{
												OFFSET	1	0	0
											}
										}
									}
								}
							}
						}
					}
					JOINT right_clavicle
					{
						OFFSET	43.2	22.4	-70.8
						CHANNELS 3  Xrotation Yrotation Zrotation
						JOINT right_shoulder
						{
							OFFSET	93.9	-5.79999	48.7
							CHANNELS 3  Xrotation Yrotation Zrotation
							JOINT right_elbow
							{
								OFFSET	291.4	-30.8	15.2
								CHANNELS 3  Xrotation Yrotation Zrotation
								JOINT right_lowarm_twist
								{
									OFFSET	110.7	-3.89999	13.6
									CHANNELS 3  Xrotation Yrotation Zrotation
									JOINT right_hand
									{
										OFFSET	110.7	-3.89999	13.6
										CHANNELS 3  Xrotation Yrotation Zrotation
										JOINT right_ee
										{
											OFFSET	80.8	-5.10001	12.1
											CHANNELS 3  Xrotation Yrotation Zrotation
											End Site
											{
												OFFSET	1	0	0
											}
										}
									}
								}
							}
						}
					}
				}
			}
		}
	}
	JOINT left_hip
	{
		OFFSET	-82.8	-127.5	0.300001
		CHANNELS 3  Xrotation Yrotation Zrotation
		JOINT left_knee
		{
			OFFSET	-28.2	-396.7	2.2
			CHANNELS 3  Xrotation Yrotation Zrotation
			JOINT left_ankle
			{
				OFFSET	-11.7	-411.3	35.4
				CHANNELS 3  Xrotation Yrotation Zrotation
				JOINT left_toes
				{
					OFFSET	0	-60	-88.6
					CHANNELS 3  Xrotation Yrotation Zrotation
					JOINT left_foot_ee
					{
						OFFSET	-22.5	-16.5	-42.2
						CHANNELS 3  Xrotation Yrotation Zrotation
						End Site
						{
							OFFSET	1	0	0
						}
					}
				}
			}
		}
	}
	JOINT right_hip
	{
		OFFSET	82.8	-127.5	0.300001
		CHANNELS 3  Xrotation Yrotation Zrotation
		JOINT right_knee
		{
			OFFSET	28.2	-396.7	2.2
			CHANNELS 3  Xrotation Yrotation Zrotation
			JOINT right_ankle
			{
				OFFSET	11.7	-411.3	35.4
				CHANNELS 3  Xrotation Yrotation Zrotation
				JOINT right_toes
				{
					OFFSET	0	-60	-88.6
					CHANNELS 3  Xrotation Yrotation Zrotation
					JOINT right_foot_ee
					{
						OFFSET	22.5	-16.5	-42.2
						CHANNELS 3  Xrotation Yrotation Zrotation
						End Site
						{
							OFFSET	1	0	0
						}
					}
				}
			}
		}
	}
}
MOTION
Frames: 5
Frame Time: 0.02
3177.02 653.055 -1669.29 -3.78821180799 11.8174917139 5.03153890437 -0.04001 -0.11455 -0.633433 -0.0397898 -0.0740116 -0.639438 -0.0388385 0.0624716 -0.640668 -0.039409 -0.0394919 -0.642494 7.59894 13.3438 -1.43983 8.49376 23.6989 -1.55714 -0.0 0.0 -0.0 0.343666 12.6733 2.06645 -19.0373 -44.4298 76.6375 0.181194 -5.12915 0.00811567 -0.926325 -0.0335583 0.113536 1.04206 12.1214 11.6684 -0.0 0.0 -0.0 9.33516 18.6473 -18.0147 9.28104 22.607 -56.328 2.61793 52.3552 -1.28708 -4.49588 0.17994 -0.545647 0.724227 -0.266275 -4.95166 0.0 0.0 0.0 26.7485 -4.17531 -7.67879 0.614556 -0.0257937 -0.0907795 15.2135 -8.06597 -2.2013 -17.8773 0.0 0.0 -0.0 0.0 -0.0 -9.63436 10.712 -3.13517 -17.1836 -0.318535 -2.60788 39.6223 5.66397 4.90923 -0.125542 0.0 0.0 0.0 0.0 0.0 
3177.02 653.055 -1669.29 -3.79275503879 12.1406854749 5.05342813703 -0.04001 -0.11455 -0.633433 -0.0397898 -0.0740116 -0.639438 -0.0388385 0.0624716 -0.640668 -0.039409 -0.0394919 -0.642494 7.59894 13.3438 -1.43983 8.49376 23.6989 -1.55714 -0.0 0.0 -0.0 0.343666 12.6733 2.06645 -19.0373 -44.4298 76.6375 0.181194 -5.12915 0.00811567 -0.926325 -0.0335583 0.113536 1.04206 12.1214 11.6684 -0.0 0.0 -0.0 9.33516 18.6473 -18.0147 9.28104 22.607 -56.328 2.61793 52.3552 -1.28708 -4.49588 0.17994 -0.545647 0.724227 -0.266275 -4.95166 0.0 0.0 0.0 26.7485 -4.17531 -7.67879 0.614556 -0.0257937 -0.0907795 15.2135 -8.06597 -2.2013 -17.8773 0.0 0.0 -0.0 0.0 -0.0 -9.63436 10.712 -3.13517 -17.1836 -0.318535 -2.60788 39.6223 5.66397 4.90923 -0.125542 0.0 0.0 0.0 0.0 0.0 
3160.29625827 654.114 -1688.69670068 -3.11091831632 11.3427622953 4.07146996686 -0.147161 -0.0953877 -0.402987 -0.147073 -0.0695515 -0.40824 -0.14652 0.0188621 -0.413692 -0.146756 -0.046709 -0.41148 7.82034 13.1904 -0.755912 8.62906 22.7891 -0.755823 -0.0 0.0 -0.0 0.944131 13.4606 3.13574 -19.3812 -45.3397 74.7823 0.196502 -5.55988 0.00954164 -1.40696 -0.0516933 0.172231 0.80482 13.5572 10.6681 -0.0 0.0 -0.0 9.4037 18.9097 -18.1494 7.08217 23.2449 -56.8916 2.31338 48.8846 -1.05157 -6.27358 0.262829 -0.757288 0.738679 -2.84538 -6.09699 0.0 0.0 0.0 27.1242 -3.76541 -6.27787 -3.5863 0.130957 0.534716 13.6509 -5.44358 -1.96545 -18.8037 0.0 0.0 -0.0 0.0 -0.0 -9.99661 12.4714 -2.6003 -21.0051 -0.282338 -3.19301 38.1804 2.53077 4.7394 1.30552 -0.0 -0.0 0.0 0.0 0.0 
3160.16854147 654.114 -1688.58590408 -3.1151080888 11.7203497507 4.09242839767 -0.147161 -0.0953877 -0.402987 -0.147073 -0.0695515 -0.40824 -0.14652 0.0188621 -0.413692 -0.146756 -0.046709 -0.41148 7.82034 13.1904 -0.755912 8.62906 22.7891 -0.755823 -0.0 0.0 -0.0 0.944131 13.4606 3.13574 -19.3812 -45.3397 74.7823 0.196502 -5.55988 0.00954164 -1.40696 -0.0516933 0.172231 0.80482 13.5572 10.6681 -0.0 0.0 -0.0 9.4037 18.9097 -18.1494 7.08217 23.2449 -56.8916 2.31338 48.8846 -1.05157 -6.27358 0.262829 -0.757288 0.738679 -2.84538 -6.09699 0.0 0.0 0.0 27.1242 -3.76541 -6.27787 -3.5863 0.130957 0.534716 13.6509 -5.44358 -1.96545 -18.8037 0.0 0.0 -0.0 0.0 -0.0 -9.99661 12.4714 -2.6003 -21.0051 -0.282338 -3.19301 38.1804 2.53077 4.7394 1.30552 -0.0 -0.0 0.0 0.0 0.0 
3139.03810421 655.182 -1712.5805211 -2.64028272249 12.1461996099 3.60730822597 -0.142606 -0.191366 -0.172106 -0.142607 -0.180027 -0.183934 -0.142013 -0.136808 -0.218002 -0.142039 -0.16952 -0.19366 8.34776 13.0328 -0.336282 9.10997 22.0451 -0.309149 -0.0 0.0 -0.0 1.69784 13.7015 4.39043 -19.1003 -46.1588 72.2949 0.209276 -5.91881 0.010819 -1.74306 -0.0646674 0.213184 0.618715 14.542 9.84841 -0.0 0.0 -0.0 9.12886 19.2174 -17.518 4.86511 23.4343 -57.0357 2.12272 46.4332 -0.910614 -7.28297 0.31281 -0.876299 0.777006 -4.92659 -7.18435 0.0 0.0 0.0 26.9933 -3.5155 -5.11448 -6.93823 0.222864 1.04084 13.4566 -2.77915 -1.92039 -19.463 0.0 0.0 -0.0 0.0 -0.0 -9.10295 14.3879 0.0103132 -23.6685 -0.234074 -3.59882 36.2478 -1.75931 4.52718 2.16312 -0.0 -0.0 0.0 0.0 0.0 
